<svg width="17" height="17" viewBox="0 0 17 17" fill="none" xmlns="http://www.w3.org/2000/svg">
<g clip-path="url(#clip0)">
<path d="M0.607153 1.21423H16.3928C16.7282 1.21423 17 1.48603 17 1.82139V15.1785C17 15.5139 16.7282 15.7857 16.3928 15.7857H0.607119C0.271769 15.7857 -3.24249e-05 15.5139 -3.24249e-05 15.1785V1.82139C0 1.48603 0.271801 1.21423 0.607153 1.21423ZM1.21427 14.5714H15.7857V2.42854H1.2143V14.5714H1.21427Z" fill="#04172A" fill-opacity="0.3"/>
<path d="M9.76769 5.87086C9.95894 5.63548 10.2943 5.57701 10.5539 5.73446L16.7266 9.47848L16.097 10.5169L10.3769 7.04708L3.54632 15.4601L2.60342 14.6949L9.76769 5.87086Z" fill="#04172A" fill-opacity="0.3"/>
<path d="M4.39894 5.79433C4.63491 5.59013 4.98746 5.59783 5.21394 5.81295L8.37109 8.80817L7.53547 9.68935L4.77742 7.07258L0.983994 10.3556L0.189444 9.43721L4.39894 5.79433Z" fill="#04172A" fill-opacity="0.3"/>
</g>
<defs>
<clipPath id="clip0">
<rect width="17" height="17" fill="white" transform="matrix(-1 0 0 1 17 0)"/>
</clipPath>
</defs>
</svg>
